<svg width="736" height="557" viewBox="0 0 736 557" fill="none" xmlns="http://www.w3.org/2000/svg">
<g id="undraw_dev_focus_re_6iwt 1" clip-path="url(#clip0_0_1)">
<g id="fumes">
<path id="Vector" d="M555.917 443.562C553.903 427.688 553.37 411.606 554.33 395.597L555.917 369.104C547.169 389.461 549.146 416.254 555.917 443.562Z" fill="#C2B6B6"/>
<path id="Vector_2" d="M562.739 447.994C561.769 438.522 561.513 428.968 561.975 419.444L562.739 403.674C558.53 415.791 559.481 431.739 562.739 447.994Z" fill="#C2B6B6"/>
</g>
<g id="fumes2">
<path id="Vector_3" d="M578.009 342.628C580.586 358.432 581.688 374.49 581.296 390.519L580.648 417.046C588.67 396.434 585.744 369.716 578.009 342.628Z" fill="#C2B6B6"/>
<path id="Vector_4" d="M571.035 338.406C572.34 347.844 572.934 357.385 572.81 366.918L572.605 382.703C576.382 370.464 574.867 354.553 571.035 338.406Z" fill="#C2B6B6"/>
</g>
<path id="Vector_5" d="M604.439 470.01V478.874C604.436 479.578 604.196 480.253 603.77 480.75C603.344 481.248 602.768 481.53 602.166 481.533H598.376C598.276 481.533 598.178 481.556 598.085 481.6C597.993 481.644 597.91 481.71 597.839 481.792C597.769 481.874 597.713 481.972 597.675 482.08C597.637 482.188 597.618 482.303 597.618 482.42V555.105C597.615 555.809 597.374 556.483 596.949 556.981C596.523 557.479 595.946 557.761 595.344 557.764H549.11C548.507 557.764 547.929 557.483 547.502 556.985C547.076 556.486 546.836 555.81 546.836 555.105V482.42C546.835 482.185 546.755 481.96 546.613 481.794C546.471 481.628 546.279 481.534 546.078 481.533H541.53C540.927 481.533 540.349 481.252 539.923 480.754C539.497 480.255 539.257 479.579 539.256 478.874V470.01C539.256 469.661 539.315 469.315 539.429 468.992C539.543 468.669 539.71 468.376 539.922 468.129C540.133 467.882 540.384 467.686 540.66 467.552C540.936 467.419 541.232 467.35 541.53 467.351H602.166C602.768 467.353 603.345 467.634 603.771 468.132C604.197 468.63 604.438 469.306 604.439 470.01Z" fill="#C1C0C0"/>
<path id="Vector_6" d="M597.686 483.395H546.904V486.054H597.686V483.395Z" fill="#E6E6E6"/>
<path id="Vector_7" d="M597.618 522.525C580.625 530.749 563.447 530.84 546.078 522.525V503.791C562.799 497.223 580.897 497.223 597.618 503.791V522.525Z" fill="#E6E6E6"/>
<path id="Vector_8" d="M228.278 433.09C232.071 433.09 235.146 429.494 235.146 425.059C235.146 420.624 232.071 417.028 228.278 417.028C224.486 417.028 221.411 420.624 221.411 425.059C221.411 429.494 224.486 433.09 228.278 433.09Z" fill="#6C63FF"/>
<path id="Vector_9" d="M365.623 441.121C369.416 441.121 372.49 437.526 372.49 433.09C372.49 428.655 369.416 425.059 365.623 425.059C361.83 425.059 358.756 428.655 358.756 433.09C358.756 437.526 361.83 441.121 365.623 441.121Z" fill="#6C63FF"/>
<g id="me">
<path id="Vector_10" d="M346.298 221.942C361.533 221.942 373.884 207.498 373.884 189.68C373.884 171.863 361.533 157.419 346.298 157.419C331.063 157.419 318.712 171.863 318.712 189.68C318.712 207.498 331.063 221.942 346.298 221.942Z" fill="#2F2E41"/>
<path id="Vector_11" d="M353.983 158.307C358.757 158.308 363.45 159.757 367.601 162.514C371.753 165.271 375.222 169.24 377.669 174.034C380.116 178.828 381.458 184.282 381.563 189.864C381.667 195.446 380.532 200.964 378.267 205.879C380.659 202.38 382.401 198.336 383.382 194.006C384.364 189.675 384.563 185.153 383.967 180.728C383.372 176.303 381.995 172.071 379.923 168.302C377.852 164.534 375.132 161.311 371.937 158.84C368.742 156.369 365.142 154.703 361.366 153.949C357.59 153.195 353.721 153.369 350.006 154.46C346.291 155.551 342.81 157.536 339.787 160.287C336.764 163.038 334.264 166.495 332.446 170.439C335.025 166.653 338.301 163.596 342.03 161.495C345.758 159.395 349.844 158.305 353.983 158.307Z" fill="#2F2E41"/>
<path id="Vector_12" d="M294.75 189.612C339.503 189.612 375.783 147.183 375.783 94.8444C375.783 42.5057 339.503 0.0767212 294.75 0.0767212C249.996 0.0767212 213.716 42.5057 213.716 94.8444C213.716 147.183 249.996 189.612 294.75 189.612Z" fill="#2F2E41"/>
<path id="Vector_13" d="M231.152 36.0455C245.114 17.681 264.632 6.3792 285.585 4.52527C306.538 2.67134 327.287 10.4104 343.454 26.109C342.791 25.3723 342.135 24.6297 341.447 23.9139C325.383 7.22755 304.311 -1.31498 282.863 0.164584C261.414 1.64414 241.347 13.0247 227.072 31.8038C212.797 50.583 205.483 75.2235 206.739 100.307C207.995 125.391 217.718 148.865 233.769 165.568C234.458 166.284 235.165 166.958 235.868 167.641C220.644 150.704 211.641 127.511 210.761 102.959C209.881 78.4058 217.192 54.4135 231.152 36.0455Z" fill="#2F2E41"/>
<path id="Vector_14" d="M294.063 188.809C322.887 188.809 346.254 161.482 346.254 127.772C346.254 94.0624 322.887 66.7353 294.063 66.7353C265.239 66.7353 241.872 94.0624 241.872 127.772C241.872 161.482 265.239 188.809 294.063 188.809Z" fill="#FFB8B8"/>
<path id="Vector_15" d="M320.724 205.379L264.873 208.315C264.873 208.315 269.534 242.094 239.318 245.307C209.103 248.519 181.634 238.882 170.646 262.975C159.658 287.069 164.394 372.859 164.394 372.859C164.394 372.859 184.996 459.596 201.477 472.446C217.959 485.296 362.171 467.627 362.171 467.627L422.524 378.505L420.48 309.773C419.413 273.882 391.393 246.935 361.214 253.577C360.621 253.707 360.025 253.848 359.424 253.998C359.424 253.998 352.794 248.203 334.603 237.566C323.479 231.062 320.724 205.379 320.724 205.379Z" fill="#CACACA"/>
<path id="Vector_16" d="M199.488 243.7C199.488 243.7 212.763 271.869 207.269 312.024C201.775 352.18 224.826 437.109 224.826 437.109L241.307 432.29C241.307 432.29 230.32 348.766 233.067 329.491C235.814 310.216 236.572 253.338 222.837 243.7C209.103 234.063 199.488 243.7 199.488 243.7Z" fill="#2F2E41"/>
<path id="Vector_17" d="M358.458 258.47L364.231 436.306L375.218 444.337C375.218 444.337 391.013 249.179 382.772 249.179H366.005C365.012 249.179 364.03 249.408 363.113 249.852C362.196 250.296 361.363 250.947 360.661 251.768C359.959 252.589 359.403 253.563 359.023 254.635C358.643 255.707 358.448 256.857 358.448 258.017C358.448 258.168 358.451 258.319 358.458 258.47Z" fill="#2F2E41"/>
<path id="Vector_18" d="M249.426 51.4755V112.512H261.513L276.895 93.2375L274.835 112.512H328.262L324.965 93.2375L331.558 112.512H340.073V51.4755H249.426Z" fill="#2F2E41"/>
<path id="Vector_19" d="M241.185 123.757C243.461 123.757 245.306 119.801 245.306 114.922C245.306 110.043 243.461 106.088 241.185 106.088C238.91 106.088 237.065 110.043 237.065 114.922C237.065 119.801 238.91 123.757 241.185 123.757Z" fill="#FFB8B8"/>
<path id="Vector_20" d="M346.941 123.757C349.216 123.757 351.061 119.801 351.061 114.922C351.061 110.043 349.216 106.088 346.941 106.088C344.665 106.088 342.82 110.043 342.82 114.922C342.82 119.801 344.665 123.757 346.941 123.757Z" fill="#FFB8B8"/>
</g>
<path id="Vector_21" d="M457.153 539.329V544.71C457.156 546.186 456.922 547.651 456.464 549.027C456.26 549.64 456.014 550.233 455.729 550.799C454.825 552.573 453.543 554.041 452.009 555.06C450.474 556.08 448.739 556.615 446.974 556.614H108.516C106.751 556.615 105.016 556.08 103.481 555.06C101.947 554.041 100.665 552.573 99.7615 550.799C99.4758 550.233 99.2299 549.64 99.0263 549.027C98.568 547.651 98.334 546.186 98.3366 544.71V539.329C98.3362 537.766 98.5991 536.219 99.1102 534.775C99.6213 533.33 100.371 532.018 101.315 530.913C102.26 529.807 103.382 528.93 104.616 528.332C105.851 527.733 107.174 527.425 108.51 527.425H128.025V524.916C128.025 524.851 128.036 524.787 128.057 524.727C128.078 524.666 128.109 524.612 128.149 524.566C128.188 524.52 128.235 524.483 128.286 524.458C128.337 524.433 128.393 524.42 128.448 524.42H138.629C138.741 524.42 138.849 524.472 138.929 524.564C139.008 524.657 139.053 524.783 139.053 524.915V527.425H145.412V524.916C145.412 524.851 145.423 524.787 145.444 524.727C145.465 524.666 145.497 524.612 145.536 524.566C145.575 524.52 145.622 524.483 145.673 524.458C145.725 524.433 145.78 524.42 145.835 524.42H156.016C156.128 524.42 156.236 524.472 156.316 524.565C156.395 524.657 156.44 524.783 156.44 524.915V527.425H162.807V524.916C162.807 524.851 162.818 524.787 162.839 524.727C162.86 524.666 162.891 524.612 162.931 524.566C162.97 524.52 163.017 524.483 163.068 524.458C163.119 524.433 163.174 524.42 163.23 524.42H173.411C173.523 524.42 173.631 524.472 173.71 524.565C173.79 524.657 173.835 524.783 173.835 524.915V527.425H180.194V524.916C180.194 524.851 180.205 524.787 180.226 524.727C180.247 524.666 180.279 524.612 180.318 524.566C180.357 524.52 180.404 524.483 180.455 524.458C180.507 524.433 180.562 524.42 180.617 524.42H190.798C190.91 524.42 191.018 524.472 191.098 524.565C191.177 524.657 191.222 524.783 191.222 524.915V527.425H197.581V524.916C197.581 524.851 197.592 524.787 197.613 524.727C197.635 524.667 197.666 524.612 197.705 524.566C197.744 524.52 197.791 524.483 197.842 524.458C197.894 524.433 197.949 524.42 198.004 524.42H208.185C208.297 524.42 208.405 524.472 208.485 524.565C208.564 524.657 208.609 524.783 208.609 524.915V527.425H214.976V524.916C214.976 524.851 214.987 524.787 215.008 524.727C215.029 524.667 215.06 524.612 215.1 524.566C215.139 524.52 215.186 524.483 215.237 524.458C215.288 524.433 215.344 524.42 215.399 524.42H225.58C225.692 524.42 225.8 524.472 225.88 524.565C225.959 524.657 226.004 524.783 226.004 524.915V527.425H232.363V524.916C232.363 524.851 232.374 524.787 232.395 524.727C232.416 524.667 232.448 524.612 232.487 524.566C232.526 524.52 232.573 524.483 232.624 524.458C232.676 524.433 232.731 524.42 232.786 524.42H312.523C312.579 524.42 312.634 524.433 312.685 524.457C312.737 524.482 312.784 524.519 312.823 524.565C312.862 524.611 312.894 524.665 312.915 524.725C312.936 524.785 312.947 524.85 312.948 524.915V527.425H319.314V524.916C319.314 524.851 319.325 524.787 319.346 524.727C319.367 524.667 319.399 524.612 319.438 524.566C319.477 524.52 319.524 524.483 319.575 524.458C319.627 524.433 319.682 524.42 319.737 524.42H329.918C330.03 524.421 330.137 524.474 330.217 524.567C330.296 524.66 330.341 524.785 330.342 524.916V527.425H336.701V524.916C336.701 524.851 336.712 524.787 336.733 524.727C336.755 524.667 336.786 524.612 336.825 524.566C336.864 524.52 336.911 524.483 336.962 524.458C337.014 524.433 337.069 524.42 337.125 524.42H347.305C347.361 524.42 347.416 524.433 347.467 524.457C347.519 524.482 347.565 524.519 347.605 524.565C347.644 524.611 347.676 524.665 347.697 524.725C347.718 524.785 347.729 524.85 347.73 524.915V527.425H354.089V524.916C354.089 524.851 354.099 524.787 354.121 524.727C354.142 524.667 354.173 524.612 354.212 524.566C354.252 524.52 354.298 524.483 354.35 524.458C354.401 524.433 354.456 524.42 354.512 524.42H364.692C364.748 524.42 364.803 524.433 364.854 524.457C364.906 524.482 364.953 524.519 364.992 524.565C365.031 524.611 365.063 524.665 365.084 524.725C365.105 524.785 365.117 524.85 365.117 524.915V527.425H371.483V524.916C371.483 524.851 371.494 524.787 371.515 524.727C371.537 524.667 371.568 524.612 371.607 524.566C371.646 524.52 371.693 524.483 371.744 524.458C371.796 524.433 371.851 524.42 371.906 524.42H382.087C382.198 524.422 382.305 524.475 382.383 524.568C382.461 524.661 382.504 524.786 382.504 524.916V527.425H388.871V524.916C388.87 524.851 388.881 524.787 388.902 524.727C388.924 524.667 388.955 524.612 388.994 524.566C389.033 524.52 389.08 524.483 389.131 524.458C389.183 524.433 389.238 524.42 389.294 524.42H399.474C399.53 524.42 399.585 524.433 399.636 524.457C399.688 524.482 399.735 524.519 399.774 524.565C399.813 524.611 399.845 524.665 399.866 524.725C399.887 524.785 399.898 524.85 399.899 524.915V527.425H406.258V524.916C406.258 524.851 406.268 524.787 406.29 524.727C406.311 524.667 406.342 524.612 406.381 524.566C406.421 524.52 406.467 524.483 406.519 524.458C406.57 524.433 406.625 524.42 406.681 524.42H416.861C416.917 524.42 416.972 524.433 417.023 524.458C417.075 524.482 417.122 524.519 417.161 524.565C417.201 524.611 417.232 524.665 417.253 524.725C417.275 524.785 417.286 524.85 417.286 524.915V527.425H446.974C449.673 527.424 452.262 528.677 454.171 530.909C456.08 533.14 457.153 536.167 457.153 539.323L457.153 539.329Z" fill="#3F3D56"/>
<path id="Vector_22" d="M429.9 312.734H119.869C118.748 312.734 117.639 312.992 116.603 313.494C115.568 313.995 114.627 314.73 113.835 315.657C113.042 316.584 112.414 317.684 111.985 318.895C111.556 320.105 111.336 321.403 111.336 322.714V524.735C111.336 527.382 112.235 529.921 113.835 531.792C115.435 533.664 117.606 534.715 119.869 534.715H429.9C432.163 534.715 434.333 533.664 435.934 531.792C437.534 529.921 438.433 527.382 438.433 524.735V322.714C438.433 320.067 437.534 317.529 435.934 315.657C434.333 313.785 432.163 312.734 429.9 312.734Z" fill="#3F3D56"/>
<path id="Vector_23" d="M275.133 405.425C285.598 405.425 294.081 395.503 294.081 383.265C294.081 371.026 285.598 361.105 275.133 361.105C264.668 361.105 256.184 371.026 256.184 383.265C256.184 395.503 264.668 405.425 275.133 405.425Z" fill="#6C63FF"/>
</g>
<defs>
<clipPath id="clip0_0_1">
<rect width="736" height="557" fill="white"/>
</clipPath>
</defs>
</svg>
