<svg width="605" height="532" viewBox="0 0 605 532" fill="none" xmlns="http://www.w3.org/2000/svg">
<g id="undraw_personal_email_re_4lx7 1" clip-path="url(#clip0_3_3)">
<path id="Vector" d="M149.331 485.434L150.562 513.25L150.562 513.251C150.769 517.952 149.227 522.549 146.274 526.031C143.321 529.513 139.2 531.595 134.816 531.818L134.279 531.845L132.264 486.303L149.331 485.434Z" fill="#2F2E41"/>
<g id="leafs">
<path id="Vector_2" d="M518.105 438.428C505.751 464.281 490.082 489.285 470.256 511.915C469.816 512.426 469.371 512.924 468.923 513.431L421.95 489.583C422.237 489.071 422.552 488.497 422.891 487.868C443.069 450.846 564.872 225.005 561.023 173.854C561.471 178.073 575.909 317.587 518.105 438.428Z" fill="#E6E6E6"/>
<path id="Vector_3" d="M479.318 516.515C478.661 516.916 477.987 517.309 477.308 517.688L442.07 499.798C442.563 499.423 443.137 498.98 443.796 498.482C454.592 490.17 486.694 465.231 518.105 438.428C551.861 409.625 584.827 378.678 589.722 363.906C588.728 367.293 557.831 470.262 479.318 516.515Z" fill="#E6E6E6"/>
<path id="Vector_4" d="M436.166 550.775C435.408 550.912 434.638 551.035 433.868 551.144L407.45 521.753C408.044 521.581 408.74 521.375 409.535 521.148C422.601 517.287 461.535 505.599 500.497 491.924C542.367 477.228 584.273 460.247 594.165 448.233C592.017 451.034 526.074 535.939 436.166 550.775Z" fill="#E6E6E6"/>
</g>
<path id="Vector_5" d="M58.6169 530.734C88.6512 530.734 112.999 504.624 112.999 472.416C112.999 440.207 88.6512 414.097 58.6169 414.097C28.5825 414.097 4.23483 440.207 4.23483 472.416C4.23483 504.624 28.5825 530.734 58.6169 530.734Z" fill="#6C63FF"/>
<path id="Vector_6" d="M80.4005 447.943H36.8332C34.9081 447.945 33.0624 448.766 31.7012 450.226C30.3399 451.686 29.5742 453.665 29.572 455.73V489.102C29.5742 491.166 30.3399 493.145 31.7011 494.605C33.0624 496.065 34.9081 496.886 36.8332 496.888H80.4005C82.3257 496.886 84.1713 496.065 85.5326 494.605C86.8939 493.145 87.6596 491.166 87.6618 489.102V455.73C87.6596 453.665 86.8939 451.686 85.5326 450.226C84.1713 448.766 82.3256 447.945 80.4005 447.943ZM80.4005 452.393C80.6606 452.394 80.9195 452.43 81.1712 452.5L58.6219 471.79L36.2044 452.461C36.4113 452.415 36.622 452.392 36.8332 452.393H80.4005ZM80.4005 492.439H36.8332C36.0082 492.438 35.2172 492.086 34.6338 491.46C34.0504 490.835 33.7222 489.986 33.7213 489.102V456.029L57.3169 476.374C57.6844 476.691 58.1415 476.864 58.6129 476.865C59.0844 476.866 59.5421 476.695 59.9106 476.38L83.5125 456.189V489.102C83.5116 489.986 83.1834 490.835 82.6 491.46C82.0166 492.086 81.2256 492.438 80.4005 492.439Z" fill="white"/>
<path id="Vector_7" d="M268.49 388.219L280.658 388.326C281.889 388.337 283.108 388.06 284.229 387.514C285.35 386.968 286.346 386.166 287.149 385.165C287.951 384.163 288.54 382.986 288.875 381.715C289.209 380.444 289.281 379.111 289.086 377.807C288.876 376.404 288.361 375.073 287.584 373.923C286.806 372.772 285.788 371.832 284.61 371.181C283.433 370.529 282.129 370.183 280.804 370.17C279.479 370.157 278.17 370.478 276.981 371.107L265.506 377.179L226.258 386.565L209.444 368.13L199.786 385.188L222.475 403.987L268.49 388.219Z" fill="#FFB8B8"/>
<path id="Vector_8" d="M266.209 523.036L251.873 525.992C242.081 492.89 231.471 461.542 231.472 437.297C217.614 453.837 200.429 463.299 180.192 466.271L182.398 429.61L198.94 420.149L224.256 407.619C226.473 406.522 228.864 405.887 231.302 405.75C236.042 405.482 240.706 407.104 244.398 410.304C248.089 413.503 250.546 418.054 251.296 423.08L266.209 523.036Z" fill="#2F2E41"/>
<path id="Vector_9" d="M197.561 461.836L191.847 466.493C189.39 468.495 186.488 469.774 183.428 470.202C180.368 470.629 177.256 470.192 174.403 468.931C158.037 455.776 146.41 459.657 135.872 479.513C123.232 464.216 120.114 442.121 131.394 419.262L193.977 420.74L206.659 416.601L197.561 461.836Z" fill="#2F2E41"/>
<path id="Vector_10" d="M176.719 530.345C173.133 531.528 169.273 531.32 165.815 529.758C162.358 528.196 159.523 525.379 157.808 521.8C152.183 516.488 147.438 508.882 143.322 499.633C140.369 492.848 137.833 485.864 135.731 478.724C132.883 469.291 137.645 458.985 146.509 456.163C146.772 456.079 147.039 456 147.309 455.926C159.141 452.668 171.292 459.987 175.337 472.348L187.098 508.293C187.793 510.416 188.091 512.666 187.975 514.913C187.859 517.159 187.331 519.36 186.422 521.388C185.514 523.417 184.241 525.233 182.678 526.734C181.114 528.235 179.29 529.391 177.31 530.136C177.114 530.21 176.917 530.279 176.719 530.345Z" fill="#2F2E41"/>
<path id="Vector_11" opacity="0.2" d="M141.319 495.54C141.319 495.54 155.104 512.096 157.861 521.557Z" fill="black"/>
<path id="Vector_12" d="M87.8569 417.404L83.2434 429.479C82.7766 430.701 82.5639 432.017 82.6202 433.336C82.6765 434.655 83.0004 435.945 83.5694 437.116C84.1383 438.287 84.9386 439.311 85.9144 440.116C86.8903 440.921 88.0181 441.489 89.2194 441.778C90.5122 442.09 91.8553 442.072 93.1405 441.726C94.4257 441.379 95.6171 440.714 96.6188 439.784C97.6206 438.854 98.4048 437.684 98.9082 436.37C99.4116 435.055 99.6203 433.633 99.5173 432.216L98.5233 418.535L104.978 375.972L127.186 366.08L116.005 350.126L91.3001 365.732L87.8569 417.404Z" fill="#FFB8B8"/>
<path id="Vector_13" d="M198.113 419.262C182.27 447.8 150.687 458.85 123.636 436.504C128.395 419.737 143.758 373.398 133.833 371.625C112.76 381.101 112.729 358.851 108.787 347.715L156.758 328.793L182.674 336.48L187.986 338.502C191.443 339.817 194.442 342.237 196.579 345.434C198.715 348.632 199.888 352.455 199.938 356.388C189.052 373.254 180.993 391.245 198.113 419.262Z" fill="#6C63FF"/>
<path id="Vector_14" d="M204.178 396.201L185.155 379.349L191.496 340.028L217.411 369.593L204.178 396.201Z" fill="#6C63FF"/>
<path id="b82a9922-ead1-40af-af3b-f133b244cde7" d="M519.827 126.073H517.108V46.2173C517.108 33.9597 512.568 22.2042 504.485 13.5367C496.403 4.86931 485.441 0 474.01 0H316.243C304.813 0 293.851 4.86931 285.769 13.5367C277.686 22.2042 273.146 33.9597 273.146 46.2173V484.315C273.146 496.573 277.686 508.328 285.769 516.996C293.851 525.663 304.813 530.532 316.243 530.532H474.01C485.44 530.532 496.402 525.663 504.484 516.996C512.567 508.328 517.107 496.573 517.107 484.315V182.916H519.827L519.827 126.073Z" fill="#3F3D56"/>
<path id="b2a7827b-2d2c-407d-93be-35e4c67116bc" d="M475.749 12.023H455.155C456.103 14.5132 456.465 17.215 456.209 19.8904C455.953 22.5659 455.088 25.1328 453.689 27.365C452.29 29.5973 450.401 31.4263 448.188 32.691C445.974 33.9556 443.505 34.6171 440.997 34.617H350.615C348.107 34.6168 345.638 33.9553 343.425 32.6907C341.212 31.4261 339.323 29.5973 337.924 27.3653C336.526 25.1334 335.66 22.5669 335.404 19.8918C335.149 17.2167 335.51 14.5152 336.457 12.0252H317.22C308.683 12.0252 300.497 15.6617 294.461 22.1347C288.425 28.6076 285.034 37.3868 285.034 46.541V483.994C285.034 493.148 288.425 501.927 294.461 508.4C300.497 514.873 308.683 518.509 317.22 518.509H475.743C484.279 518.509 492.466 514.873 498.502 508.4C504.538 501.927 507.929 493.148 507.929 483.994V46.5387C507.929 37.3846 504.538 28.6054 498.502 22.1324C492.466 15.6595 484.279 12.023 475.743 12.023L475.749 12.023Z" fill="white"/>
<path id="e6b07811-3d0f-4972-ba4c-46b0c6566e33" d="M396.757 494.063C406.518 494.063 414.431 485.577 414.431 475.109C414.431 464.642 406.518 456.156 396.757 456.156C386.995 456.156 379.082 464.642 379.082 475.109C379.082 485.577 386.995 494.063 396.757 494.063Z" fill="#E6E6E6"/>
<g id="lines">
<path id="Vector_15" d="M325.056 299.828C323.386 299.828 322.026 301.492 322.026 303.537C322.026 305.582 323.386 307.246 325.056 307.246H467.906C469.577 307.246 470.936 305.582 470.936 303.537C470.936 301.492 469.577 299.828 467.906 299.828H325.056Z" fill="#E6E6E6"/>
<path id="Vector_16" d="M325.056 387.306C323.386 387.306 322.026 388.97 322.026 391.015C322.026 393.059 323.386 394.724 325.056 394.724H467.906C469.577 394.724 470.936 393.059 470.936 391.015C470.936 388.97 469.577 387.306 467.906 387.306H325.056Z" fill="#E6E6E6"/>
<path id="Vector_17" d="M325.056 322.082C323.386 322.082 322.026 323.746 322.026 325.791C322.026 327.836 323.386 329.5 325.056 329.5H386.525C388.196 329.5 389.555 327.836 389.555 325.791C389.555 323.746 388.196 322.082 386.525 322.082H325.056Z" fill="#E6E6E6"/>
<path id="Vector_18" d="M325.056 343.294C323.386 343.294 322.026 344.958 322.026 347.003C322.026 349.048 323.386 350.712 325.056 350.712H467.906C469.577 350.712 470.936 349.048 470.936 347.003C470.936 344.958 469.577 343.294 467.906 343.294H325.056Z" fill="#E6E6E6"/>
<path id="Vector_19" d="M325.056 365.548C323.386 365.548 322.026 367.212 322.026 369.257C322.026 371.302 323.386 372.966 325.056 372.966H386.525C388.196 372.966 389.555 371.302 389.555 369.257C389.555 367.212 388.196 365.548 386.525 365.548H325.056Z" fill="#E6E6E6"/>
</g>
<path id="Vector_20" d="M352.024 130.945H440.948C441.93 130.946 442.872 131.365 443.566 132.11C444.261 132.855 444.652 133.864 444.653 134.918V234.232C444.652 235.285 444.261 236.295 443.566 237.04C442.872 237.785 441.93 238.204 440.948 238.205H352.024C351.042 238.204 350.1 237.785 349.405 237.04C348.711 236.295 348.32 235.285 348.319 234.232V134.918C348.32 133.864 348.711 132.855 349.405 132.11C350.1 131.365 351.042 130.946 352.024 130.945Z" fill="#6C63FF"/>
<path id="Vector_21" d="M422 217.725C422.33 217.726 422.658 217.656 422.964 217.521C423.269 217.386 423.547 217.188 423.781 216.937C424.015 216.687 424.201 216.389 424.328 216.062C424.455 215.734 424.52 215.383 424.52 215.029C424.521 214.674 424.455 214.323 424.329 213.995C424.202 213.668 424.017 213.37 423.783 213.119C423.549 212.869 423.272 212.67 422.966 212.534C422.66 212.399 422.333 212.329 422.002 212.33H370.972C370.641 212.329 370.313 212.398 370.008 212.533C369.702 212.668 369.424 212.867 369.19 213.117C368.956 213.368 368.77 213.665 368.643 213.993C368.517 214.32 368.451 214.671 368.451 215.026C368.451 215.381 368.516 215.732 368.642 216.059C368.769 216.387 368.954 216.685 369.188 216.935C369.422 217.186 369.7 217.385 370.006 217.52C370.311 217.656 370.639 217.725 370.969 217.725H422Z" fill="white"/>
<path id="Vector_22" d="M422 201.831C422.667 201.831 423.307 201.547 423.778 201.041C424.25 200.535 424.515 199.849 424.515 199.134C424.515 198.418 424.25 197.732 423.778 197.226C423.307 196.721 422.667 196.436 422 196.436H370.972C370.305 196.436 369.665 196.72 369.193 197.226C368.721 197.731 368.455 198.417 368.455 199.133C368.455 199.848 368.719 200.534 369.191 201.04C369.662 201.547 370.302 201.831 370.969 201.831H422Z" fill="white"/>
<path id="Vector_23" d="M396.486 151.425C399.617 151.425 402.678 152.421 405.282 154.286C407.886 156.152 409.916 158.804 411.114 161.907C412.312 165.009 412.626 168.423 412.015 171.717C411.404 175.011 409.896 178.037 407.682 180.411C405.467 182.786 402.646 184.403 399.575 185.058C396.503 185.713 393.319 185.377 390.426 184.092C387.533 182.807 385.06 180.63 383.32 177.838C381.58 175.046 380.652 171.763 380.652 168.405C380.657 163.903 382.326 159.587 385.295 156.404C388.263 153.22 392.288 151.43 396.486 151.425Z" fill="white"/>
<path id="Vector_24" d="M186.653 333.754H139.647C138.68 333.753 137.753 333.341 137.069 332.608C136.386 331.874 136.001 330.88 136 329.843V308.115C136 300.394 138.86 292.988 143.952 287.528C149.044 282.068 155.95 279 163.15 279C170.351 279 177.257 282.068 182.348 287.528C187.44 292.988 190.3 300.394 190.3 308.115V329.843C190.299 330.88 189.915 331.874 189.231 332.608C188.547 333.341 187.62 333.753 186.653 333.754Z" fill="#2F2E41"/>
<path id="Vector_25" d="M185.806 321.338C191.079 310.994 187.534 298.024 177.888 292.369C168.242 286.714 156.147 290.516 150.874 300.86C145.601 311.205 149.146 324.175 158.792 329.83C168.438 335.485 180.533 331.683 185.806 321.338Z" fill="#FFB6B6"/>
<path id="Vector_26" d="M196.724 310.288H167.98L167.685 305.863L166.212 310.288H161.786L161.202 301.517L158.281 310.288H149.717V309.854C149.724 303.747 151.988 297.893 156.015 293.576C160.041 289.258 165.5 286.829 171.194 286.822H175.246C180.941 286.829 186.4 289.258 190.426 293.575C194.452 297.893 196.717 303.747 196.724 309.854V310.288Z" fill="#2F2E41"/>
<path id="Vector_27" d="M167.745 337.81C167.529 337.81 167.313 337.79 167.1 337.749L146.053 333.767V296.465H169.221L168.648 297.182C160.667 307.163 166.68 323.348 170.974 332.107C171.29 332.748 171.431 333.473 171.381 334.196C171.33 334.92 171.09 335.614 170.688 336.198C170.352 336.697 169.909 337.104 169.398 337.384C168.886 337.664 168.32 337.81 167.745 337.81Z" fill="#2F2E41"/>
<path id="Vector_28" d="M245.625 511.871L271.592 511.87H271.593C275.982 511.87 280.191 513.74 283.295 517.068C286.398 520.396 288.141 524.91 288.142 529.616V530.193L245.626 530.195L245.625 511.871Z" fill="#2F2E41"/>
<path id="Vector_29" d="M604.32 532H0.679775C0.499488 532 0.326584 531.923 0.199101 531.786C0.0716185 531.65 0 531.464 0 531.271C0 531.078 0.0716185 530.892 0.199101 530.756C0.326584 530.619 0.499488 530.542 0.679775 530.542H604.32C604.501 530.542 604.673 530.619 604.801 530.756C604.928 530.892 605 531.078 605 531.271C605 531.464 604.928 531.65 604.801 531.786C604.673 531.923 604.501 532 604.32 532Z" fill="#CACACA"/>
</g>
<defs>
<clipPath id="clip0_3_3">
<rect width="605" height="532" fill="white"/>
</clipPath>
</defs>
</svg>
