<svg width="628" height="529" viewBox="0 0 628 529" fill="none" xmlns="http://www.w3.org/2000/svg">
<g id="undraw_personal_email_re_4lx7 2" clip-path="url(#clip0_14_112)">
<g id="leafs">
<path id="Vector" d="M446.272 435.956C433.449 461.663 417.184 486.526 396.604 509.028C396.147 509.536 395.685 510.031 395.22 510.535L346.461 486.823C346.759 486.314 347.086 485.742 347.438 485.117C368.383 448.303 494.817 223.736 490.822 172.874C491.287 177.069 506.273 315.796 446.272 435.956Z" fill="url(#paint0_linear_14_112)"/>
<path id="Vector_2" d="M406.011 513.603C405.328 514.001 404.629 514.391 403.924 514.768L367.346 496.98C367.858 496.607 368.454 496.166 369.138 495.671C380.344 487.405 413.667 462.607 446.272 435.956C481.312 407.316 515.53 376.543 520.612 361.854C519.579 365.222 487.508 467.61 406.011 513.603Z" fill="url(#paint1_linear_14_112)"/>
<path id="Vector_3" d="M361.218 547.67C360.431 547.806 359.631 547.928 358.833 548.036L331.41 518.811C332.027 518.64 332.749 518.435 333.574 518.209C347.137 514.37 387.551 502.748 427.994 489.15C471.457 474.537 514.955 457.652 525.224 445.706C522.993 448.491 454.544 532.917 361.218 547.67Z" fill="url(#paint2_linear_14_112)"/>
</g>
<path id="b82a9922-ead1-40af-af3b-f133b244cde7" d="M448.06 125.362H445.237V45.9567C445.237 33.7682 440.524 22.079 432.134 13.4604C423.745 4.84185 412.366 0 400.501 0H236.736C224.871 0 213.493 4.84185 205.103 13.4604C196.713 22.079 192 33.7682 192 45.9567V481.584C192 493.772 196.713 505.462 205.103 514.08C213.493 522.699 224.871 527.541 236.736 527.541H400.5C412.365 527.541 423.744 522.699 432.133 514.08C440.523 505.462 445.236 493.772 445.236 481.584V181.885H448.059L448.06 125.362Z" fill="#3F3D56"/>
<path id="b2a7827b-2d2c-407d-93be-35e4c67116bc" d="M402.306 11.9553H380.929C381.913 14.4313 382.288 17.1179 382.023 19.7783C381.758 22.4386 380.859 24.9911 379.407 27.2107C377.955 29.4304 375.994 31.2491 373.697 32.5066C371.399 33.7642 368.836 34.4219 366.233 34.4218H272.414C269.811 34.4216 267.248 33.7638 264.951 32.5063C262.654 31.2489 260.693 29.4304 259.241 27.211C257.79 24.9917 256.891 22.4396 256.626 19.7796C256.36 17.1196 256.735 14.4333 257.718 11.9574H237.749C228.889 11.9574 220.391 15.5734 214.125 22.0098C207.86 28.4463 204.34 37.176 204.34 46.2785V481.264C204.34 490.367 207.86 499.096 214.125 505.533C220.391 511.969 228.889 515.585 237.749 515.585H402.3C411.16 515.585 419.658 511.969 425.924 505.533C432.189 499.096 435.709 490.367 435.709 481.264V46.2763C435.709 37.1738 432.189 28.4441 425.924 22.0076C419.658 15.5712 411.16 11.9552 402.3 11.9552L402.306 11.9553Z" fill="white"/>
<g id="lines">
<path id="Vector_4" d="M245.884 298.137C244.15 298.137 242.739 299.792 242.739 301.825C242.739 303.859 244.15 305.513 245.884 305.513H394.164C395.899 305.513 397.31 303.859 397.31 301.825C397.31 299.792 395.899 298.137 394.164 298.137H245.884Z" fill="#BFBFC3"/>
<path id="Vector_5" d="M245.884 385.122C244.15 385.122 242.739 386.776 242.739 388.81C242.739 390.843 244.15 392.498 245.884 392.498H394.164C395.899 392.498 397.31 390.843 397.31 388.81C397.31 386.776 395.899 385.122 394.164 385.122H245.884Z" fill="#BFBFC3"/>
<path id="Vector_6" d="M245.884 320.266C244.15 320.266 242.739 321.92 242.739 323.954C242.739 325.987 244.15 327.642 245.884 327.642H309.69C311.424 327.642 312.835 325.987 312.835 323.954C312.835 321.92 311.424 320.266 309.69 320.266H245.884Z" fill="#BFBFC3"/>
<path id="Vector_7" d="M245.884 341.358C244.15 341.358 242.739 343.013 242.739 345.046C242.739 347.079 244.15 348.734 245.884 348.734H394.164C395.899 348.734 397.31 347.079 397.31 345.046C397.31 343.013 395.899 341.358 394.164 341.358H245.884Z" fill="#BFBFC3"/>
<path id="Vector_8" d="M245.884 363.486C244.15 363.486 242.739 365.141 242.739 367.175C242.739 369.208 244.15 370.863 245.884 370.863H309.69C311.424 370.863 312.835 369.208 312.835 367.175C312.835 365.141 311.424 363.486 309.69 363.486H245.884Z" fill="#BFBFC3"/>
</g>
<g id="thing">
<path id="Vector_9" d="M273.877 130.206H366.181C367.201 130.207 368.178 130.624 368.899 131.365C369.62 132.105 370.026 133.11 370.027 134.157V232.911C370.026 233.958 369.62 234.963 368.899 235.703C368.178 236.444 367.201 236.861 366.181 236.862H273.877C272.857 236.861 271.88 236.444 271.159 235.703C270.438 234.963 270.032 233.958 270.031 232.911V134.157C270.032 133.11 270.438 132.105 271.159 131.365C271.88 130.624 272.857 130.207 273.877 130.206Z" fill="#6C63FF"/>
</g>
<path id="Vector_10" d="M346.513 216.497C346.856 216.498 347.196 216.429 347.513 216.295C347.831 216.16 348.119 215.963 348.362 215.714C348.605 215.465 348.798 215.169 348.93 214.843C349.061 214.518 349.129 214.169 349.129 213.816C349.129 213.463 349.062 213.114 348.931 212.788C348.799 212.463 348.607 212.167 348.364 211.917C348.121 211.668 347.833 211.471 347.516 211.336C347.199 211.201 346.859 211.132 346.515 211.132H293.545C293.202 211.132 292.862 211.2 292.544 211.335C292.227 211.469 291.939 211.667 291.696 211.916C291.453 212.165 291.26 212.46 291.128 212.786C290.996 213.112 290.929 213.461 290.928 213.813C290.928 214.166 290.996 214.515 291.127 214.841C291.258 215.167 291.451 215.463 291.694 215.712C291.937 215.961 292.225 216.159 292.542 216.294C292.859 216.428 293.199 216.497 293.542 216.497H346.513Z" fill="white"/>
<path id="Vector_11" d="M346.513 200.693C347.205 200.693 347.87 200.411 348.359 199.908C348.849 199.405 349.124 198.722 349.124 198.011C349.124 197.3 348.849 196.617 348.359 196.114C347.87 195.611 347.205 195.329 346.513 195.329H293.545C292.852 195.328 292.188 195.611 291.698 196.113C291.208 196.616 290.933 197.298 290.933 198.01C290.932 198.721 291.207 199.403 291.696 199.907C292.186 200.41 292.85 200.693 293.542 200.693H346.513Z" fill="white"/>
<path id="Vector_12" d="M320.029 150.571C323.279 150.571 326.457 151.561 329.16 153.416C331.863 155.272 333.969 157.909 335.213 160.994C336.457 164.079 336.783 167.474 336.149 170.749C335.514 174.024 333.949 177.033 331.65 179.394C329.352 181.755 326.423 183.363 323.235 184.015C320.047 184.666 316.742 184.332 313.739 183.054C310.736 181.776 308.169 179.612 306.363 176.835C304.557 174.059 303.593 170.794 303.593 167.455C303.598 162.979 305.331 158.687 308.412 155.522C311.494 152.356 315.671 150.576 320.029 150.571Z" fill="white"/>
<g id="Group">
<path id="uuid-ba1531a6-e7ab-4297-b996-1d676f43fe3f-174" d="M291.83 419.784C285.109 420.841 280.194 425.255 280.85 429.643C281.506 434.031 287.485 436.73 294.208 435.672C296.899 435.287 299.461 434.246 301.679 432.637L330.098 427.791L328.201 416.265L299.847 420.382C297.259 419.528 294.51 419.323 291.83 419.784Z" fill="#FFB6B6"/>
<path id="Vector_13" d="M414.292 383.858L403.273 407.849L347.877 426.982L301.909 429.498L300.758 418.17L350.576 407.483L401.696 382.698L414.292 383.858Z" fill="#E6E6E6"/>
<path id="Vector_14" d="M312.121 474.951L302.227 500.626L289.425 491.67L296.99 464.801L312.121 474.951Z" fill="#FFB6B6"/>
<path id="Vector_15" d="M270.802 465.398L244.615 491.073L255.09 502.417L281.859 480.922L270.802 465.398Z" fill="#FFB6B6"/>
<path id="Vector_16" d="M419.2 381.808L418.909 379.718L412.216 366.284L390.102 372.254L394.176 390.764L419.2 381.808Z" fill="#FFB6B6"/>
<path id="Vector_17" d="M409.888 471.369L410.569 480.337C410.569 480.337 413.38 517.941 390.684 520.926C367.988 523.912 358.095 526.897 344.71 503.611L323.76 465.398L311.523 480.337L295.244 467.189C295.244 467.189 306.883 420.618 316.194 418.826C317.358 418.602 318.522 418.49 319.668 418.466C327.376 418.301 334.643 422.17 339.255 428.509L365.66 464.801L375.262 460.323L409.888 471.369Z" fill="#2F2E41"/>
<path id="Vector_18" d="M284.187 499.432L289.425 489.281L304.555 500.029C304.555 500.029 308.047 513.164 302.81 514.956C297.572 516.747 283.023 514.359 283.023 514.359C283.023 514.359 256.254 520.329 255.672 514.956C255.09 509.582 267.893 508.388 267.893 508.388L284.187 499.432Z" fill="#2F2E41"/>
<path id="Vector_19" d="M341.218 492.267L300.773 466.12L280.113 485.102L266.146 468.384C266.146 468.384 291.752 429.574 299.318 427.782C306.883 425.991 319.104 424.797 319.104 424.797L356.349 460.025L341.218 492.267Z" fill="#2F2E41"/>
<path id="Vector_20" d="M244.033 488.684L257.417 503.611L255.652 505.16C255.652 505.16 252.18 520.677 244.032 515.428C235.885 510.179 235.303 508.985 235.303 508.985C235.303 508.985 212.025 514.359 209.697 504.805C207.37 495.252 213.771 497.043 213.771 497.043L219.584 500.626L244.033 488.684Z" fill="#2F2E41"/>
<path id="Vector_21" d="M397.086 378.822C407.37 378.822 415.708 370.268 415.708 359.716C415.708 349.164 407.37 340.609 397.086 340.609C386.801 340.609 378.463 349.164 378.463 359.716C378.463 370.268 386.801 378.822 397.086 378.822Z" fill="#FFB6B6"/>
<path id="Vector_22" d="M392.721 386.883L419.491 378.524C419.491 378.524 429.966 403.601 428.22 414.945C426.474 426.29 410.568 480.337 410.568 480.337L375.262 460.323C375.262 460.323 374.68 448.382 372.934 443.008C371.189 437.634 365.66 421.215 377.881 407.482C390.102 393.749 392.721 386.883 392.721 386.883Z" fill="#E6E6E6"/>
<g id="Group_2">
<path id="uuid-375aaccb-22f9-42b6-a352-baabb12db8d2-175" d="M333.802 512.258C329.446 517.613 328.608 524.26 331.93 527.104C335.252 529.948 341.475 527.912 345.833 522.554C347.602 520.439 348.852 517.919 349.477 515.207L367.657 492.278L358.802 484.925L340.199 507.263C337.708 508.38 335.515 510.092 333.802 512.258Z" fill="#FFB6B6"/>
<path id="Vector_23" d="M413.255 398.929L419.582 424.643L388.613 475.504L356.999 508.103L346.752 499.381L378.636 458.679L402.803 406.236L413.255 398.929Z" fill="#E6E6E6"/>
</g>
<path id="Vector_24" d="M379.918 356.432C384.694 356.42 384.965 356.453 385.738 356.432C391.661 356.272 393.21 353.88 396.213 354.043C401.572 354.335 394.499 381.901 391.557 394.645C388.672 407.143 398.422 418.343 399.123 419.125C409.019 430.167 426.401 432.186 429.384 427.484C431.798 423.678 423.242 417.891 425.31 409.572C427.332 401.44 436.668 402.306 439.277 394.645C442.01 386.622 432.826 382.575 427.056 363C423.743 351.757 424.329 349.662 421.237 342.699C412.972 324.087 372.461 332.011 377.008 349.267C377.888 352.605 375.547 356.443 379.918 356.432Z" fill="#413C2E"/>
</g>
</g>
<defs>
<linearGradient id="paint0_linear_14_112" x1="419.638" y1="172.874" x2="419.638" y2="510.535" gradientUnits="userSpaceOnUse">
<stop stop-color="#38383A"/>
<stop offset="1" stop-color="#6C63FF" stop-opacity="0"/>
</linearGradient>
<linearGradient id="paint1_linear_14_112" x1="443.979" y1="361.854" x2="443.979" y2="514.768" gradientUnits="userSpaceOnUse">
<stop stop-color="#38383A"/>
<stop offset="1" stop-color="#6C63FF" stop-opacity="0"/>
</linearGradient>
<linearGradient id="paint2_linear_14_112" x1="453.745" y1="419.239" x2="400.361" y2="563.413" gradientUnits="userSpaceOnUse">
<stop stop-color="#38383A"/>
<stop offset="1" stop-color="#6C63FF" stop-opacity="0"/>
</linearGradient>
<clipPath id="clip0_14_112">
<rect width="628" height="529" fill="white"/>
</clipPath>
</defs>
</svg>
